<?xml version="1.0" encoding="UTF-8"?>
<svg id="OneDrive" xmlns="http://www.w3.org/2000/svg" version="1.1" viewBox="0 0 420 250.2">
  <!-- Generator: Adobe Illustrator 29.1.0, SVG Export Plug-In . SVG Version: 2.1.0 Build 142)  -->
  <path d="M420,205.4c0,24.7-20.1,44.8-44.8,44.8h-226.6c-30.1,0-54.4-24.4-54.4-54.4s24.4-54.4,54.4-54.4,4.2.1,6.3.4c.9-40.4,33.9-73,74.6-73s48.5,13.1,62,33c8.2-4,17.3-6.3,27-6.3,33.9,0,61.4,27.5,61.4,61.4s-.1,2.7-.2,4.1c22.6,2.2,40.4,21.3,40.4,44.6ZM141.1,126.3c8.1-41.4,45-73,88.4-73s50,11,67,29.9c7.1-2.1,14.5-3.2,22-3.2h.1C313.5,35,275.4,0,229.1,0s-65.4,20.1-80.3,49.4c-9.4-5.4-20.3-8.5-31.9-8.5-35.7,0-64.7,29-64.7,64.7s.7,10.7,2,15.7C24.1,122.7,0,147.6,0,178.1s25.5,56.9,56.9,56.9h34c-7.6-11.2-12.1-24.7-12.1-39.2,0-36,27.3-65.7,62.3-69.5Z"/>
</svg>