<?xml version="1.0" encoding="utf-8"?>
<!-- Generator: Adobe Illustrator 27.2.0, SVG Export Plug-In . SVG Version: 6.00 Build 0)  -->
<svg version="1.1" id="OneDrive" xmlns="http://www.w3.org/2000/svg" xmlns:xlink="http://www.w3.org/1999/xlink" x="0px" y="0px"
	 viewBox="0 0 420 419.8" style="enable-background:new 0 0 420 419.8;" xml:space="preserve">
<path d="M420,290.2c0,24.7-20.1,44.8-44.8,44.8H148.6c-30.1,0-54.4-24.4-54.4-54.4s24.4-54.4,54.4-54.4s4.2,0.1,6.3,0.4
	c0.9-40.4,33.9-73,74.6-73s48.5,13.1,62,33c8.2-4,17.3-6.3,27-6.3c33.9,0,61.4,27.5,61.4,61.4s-0.1,2.7-0.2,4.1
	c22.6,2.2,40.4,21.3,40.4,44.6L420,290.2z M141.1,211.1c8.1-41.4,45-73,88.4-73s50,11,67,29.9c7.1-2.1,14.5-3.2,22-3.2h0.1
	c-5.1-45-43.2-80-89.5-80s-65.4,20.1-80.3,49.4c-9.4-5.4-20.3-8.5-31.9-8.5c-35.7,0-64.7,29-64.7,64.7s0.7,10.7,2,15.7
	C24.1,207.5,0,232.4,0,262.9s25.5,56.9,56.9,56.9h34c-7.6-11.2-12.1-24.7-12.1-39.2C78.8,244.6,106.1,214.9,141.1,211.1z"/>
</svg>
