<?xml version="1.0" encoding="utf-8"?>
<!-- Generator: Adobe Illustrator 27.2.0, SVG Export Plug-In . SVG Version: 6.00 Build 0)  -->
<svg version="1.1" id="Layer_1" xmlns="http://www.w3.org/2000/svg" xmlns:xlink="http://www.w3.org/1999/xlink" x="0px" y="0px"
	 viewBox="0 0 56.2 56" style="enable-background:new 0 0 56.2 56;" xml:space="preserve">
<g id="memory_card">
	<g>
		<g>
			<rect x="43.1" y="4" width="2" height="8"/>
			<rect x="39.1" y="4" width="3" height="8"/>
			<rect x="35.1" y="4" width="3" height="8"/>
			<rect x="31.1" y="4" width="3" height="8"/>
			<rect x="27.1" y="4" width="3" height="8"/>
			<rect x="23.1" y="4" width="3" height="8"/>
			<rect x="19.1" y="4" width="3" height="8"/>
			<rect x="15.1" y="4" width="3" height="8"/>
			<rect x="11.1" y="8" width="3" height="8"/>
		</g>
		<path d="M41.1,29c0.6,0,1,0.4,1,1v19c0,0.6-0.4,1-1,1h-27c-0.6,0-1-0.4-1-1V30c0-0.6,0.4-1,1-1H41.1z M41.1,28h-27
			c-1.1,0-2,0.9-2,2v19c0,1.1,0.9,2,2,2h27c1.1,0,2-0.9,2-2V30C43.1,28.9,42.2,28,41.1,28L41.1,28z"/>
		<rect x="15.1" y="46" width="25" height="1"/>
		<path d="M49.1,22.2v-6.5l-1-0.5V0H15.7L7.1,8.6V19h2v2h-2v32c0,1.7,1.3,3,3,3h35c1.7,0,3-1.3,3-3V25h-2v-1.3L49.1,22.2z M47.1,21
			l-2,1v-6l2,1V21z M46.1,27v26c0,0.6-0.4,1-1,1h-35c-0.6,0-1-0.4-1-1V23h2v-6h-2V9.4L16.5,2h29.6v12h-2v13H46.1z"/>
	</g>
</g>
</svg>
