<?xml version="1.0" encoding="UTF-8"?>
<svg id="Layer_1" xmlns="http://www.w3.org/2000/svg" version="1.1" viewBox="0 0 42 56">
  <!-- Generator: Adobe Illustrator 29.1.0, SVG Export Plug-In . SVG Version: 2.1.0 Build 142)  -->
  <g id="memory_card">
    <g>
      <g>
        <rect x="36" y="4" width="2" height="8"/>
        <rect x="32" y="4" width="3" height="8"/>
        <rect x="28" y="4" width="3" height="8"/>
        <rect x="24" y="4" width="3" height="8"/>
        <rect x="20" y="4" width="3" height="8"/>
        <rect x="16" y="4" width="3" height="8"/>
        <rect x="12" y="4" width="3" height="8"/>
        <rect x="8" y="4" width="3" height="8"/>
        <rect x="4" y="8" width="3" height="8"/>
      </g>
      <path d="M34,29c.6,0,1,.4,1,1v19c0,.6-.4,1-1,1H7c-.6,0-1-.4-1-1v-19c0-.6.4-1,1-1h27ZM34,28H7c-1.1,0-2,.9-2,2v19c0,1.1.9,2,2,2h27c1.1,0,2-.9,2-2v-19c0-1.1-.9-2-2-2h0Z"/>
      <rect x="8" y="46" width="25" height="1"/>
      <path d="M42,22.2v-6.5l-1-.5V0H8.6L0,8.6v10.4h2v2H0v32c0,1.7,1.3,3,3,3h35c1.7,0,3-1.3,3-3v-28h-2v-1.3l3-1.5ZM40,21l-2,1v-6l2,1v4ZM39,27v26c0,.6-.4,1-1,1H3c-.6,0-1-.4-1-1v-30h2v-6h-2v-7.6L9.4,2h29.6v12h-2v13h2Z"/>
    </g>
  </g>
</svg>